<?xml version="1.0" encoding="UTF-8"?>
<svg width="90px" height="42px" viewBox="0 0 90 42" version="1.1" xmlns="http://www.w3.org/2000/svg" xmlns:xlink="http://www.w3.org/1999/xlink">
    <!-- Generator: Sketch 55.1 (78136) - https://sketchapp.com -->
    <title>active-tab</title>
    <desc>Created with Sketch.</desc>
    <g id="Page-1" stroke="none" stroke-width="1" fill="none" fill-rule="evenodd">
        <g id="Artboard" transform="translate(-19.000000, -12.000000)" fill-rule="nonzero">
            <g id="active-tab" transform="translate(19.000000, 12.000000)">
                <path d="M18.642177,1.67015543 L71.6058029,1.67015543 C76.8476455,1.67015543 81.3985268,6.10346815 82.5893413,12.3699418 L87.6307134,41.5764121 L2.67122151,41.5764121 L7.65549119,12.3865509 C8.84119099,6.11207091 13.395141,1.67015543 18.642177,1.67015543 Z" id="Rectangle" fill="#FBF5E6"></path>
                <path d="M3.29819441,38 L9.02110863,12.3655176 C10.2234884,7.00928994 13.5972165,3.01736787 18.0672398,3.01736787 L71.903432,3.01736787 C76.373455,3.01736787 80.5048803,7.6434397 81.5059811,13.6907094 L87,38 L90,38 L84.057359,11.4764764 C82.5343446,4.69192124 77.5654613,0 71.903432,0 L18.0672398,0 C12.4052104,0 7.43632755,4.69192124 5.91331318,11.4764764 L0,38 L3.29819441,38 Z" id="Path" fill="#33302B"></path>
                <path d="M86.9617681,37.8169385 C87.3335428,39.9951184 89.0688993,41.0334439 89.8700674,40.9897731 C90.4929011,40.9558231 88.8389396,41.0103045 87.0431626,41.5764121 L86.9617681,37.8169385 Z" id="Path-6" fill="#FBF5E6"></path>
                <path d="M0.895757544,38 C1.26753233,40.1781799 2.31650266,41.0334439 3.11767069,40.9897731 C3.74050476,40.9558231 2.69153442,41.1040478 0.895757544,41.6701554 L0.895757544,38 Z" id="Path-6" fill="#FBF5E6" transform="translate(2.096976, 39.835078) scale(-1, 1) translate(-2.096976, -39.835078) "></path>
            </g>
        </g>
    </g>
</svg>