<?xml version="1.0" encoding="UTF-8"?>
<svg width="154px" height="57px" viewBox="0 0 154 57" version="1.1" xmlns="http://www.w3.org/2000/svg" xmlns:xlink="http://www.w3.org/1999/xlink">
    <!-- Generator: Sketch 55.1 (78136) - https://sketchapp.com -->
    <title>Group 6</title>
    <desc>Created with Sketch.</desc>
    <g id="Page-2" stroke="none" stroke-width="1" fill="none" fill-rule="evenodd">
        <g id="Desktop-HD" transform="translate(-165.000000, -42.000000)">
            <g id="Group-6" transform="translate(165.103385, 42.000000)">
                <path d="M31.3203884,2 L122.498864,2 C130.014143,2 136.637653,6.93459265 138.788064,14.1356439 L151.588416,57 L2.32259228,57 L15.0216505,14.1676979 C17.161409,6.95056561 23.792735,2 31.3203884,2 Z" id="Rectangle-Copy-6" fill="#FBF5E6"></path>
                <path d="M4.08901143,51 L16.6421542,14.1384482 C18.6890478,8.06544591 24.4168589,3.97155312 30.8667705,3.97155312 L122.926461,3.97155312 C129.376372,3.97155312 135.104183,8.06544591 137.151077,14.1384482 L149.808955,51 L153.793231,51 L140.944308,12.8780671 C138.351576,5.18559754 131.096349,0 122.926461,0 L30.8667705,0 C22.6968824,0 15.4416551,5.18559754 12.8489232,12.8780671 L0,51 L4.08901143,51 Z" id="Path" fill="#33302B" fill-rule="nonzero"></path>
            </g>
        </g>
    </g>
</svg>