<?xml version="1.0" encoding="UTF-8"?>
<svg width="22px" height="25px" viewBox="0 0 22 25" version="1.1" xmlns="http://www.w3.org/2000/svg" xmlns:xlink="http://www.w3.org/1999/xlink">
    <!-- Generator: Sketch 55.1 (78136) - https://sketchapp.com -->
    <title>bookmark (1)</title>
    <desc>Created with Sketch.</desc>
    <g id="Page-1" stroke="none" stroke-width="1" fill="none" fill-rule="evenodd">
        <g id="Desktop-HD" transform="translate(-292.000000, -733.000000)" fill="#33302B" fill-rule="nonzero">
            <g id="bookmark-(1)" transform="translate(292.000000, 733.000000)">
                <path d="M21.0165948,0.826386494 C20.7997628,0.517743089 20.5077723,0.292033493 20.1412659,0.148852585 C19.9078488,0.0498297339 19.6632192,0 19.407494,0 L19.407494,0 L1.93396938,0 C1.67836096,0 1.43396498,0.0495982369 1.20048943,0.148621088 C0.83374946,0.291686247 0.541875831,0.517685215 0.325160538,0.826154997 C0.108503642,1.13462478 0,1.47596714 0,1.85058719 L0,23.1494128 C0,23.5241486 0.108503642,23.8653752 0.325160538,24.1741344 C0.541875831,24.4825463 0.83374946,24.7084874 1.20048943,24.8514947 C1.43373139,24.9505175 1.67836096,25 1.93396938,25 C2.45657385,25 2.91762673,24.8181591 3.3178872,24.4549403 L10.6707901,17.4485671 L18.023693,24.4551139 C18.4127994,24.8070472 18.8740859,24.9833322 19.4074356,24.9833322 C19.6854105,24.9833322 19.9299817,24.9395793 20.1412075,24.8514368 C20.5077139,24.7084295 20.7997044,24.4824884 21.0165364,24.1736714 C21.2331933,23.8653173 21.3414634,23.5240329 21.3414634,23.1493549 L21.3414634,1.85081869 C21.3414634,1.47619863 21.2330181,1.13485628 21.0165948,0.826386494 Z M12.3489876,15.6913548 C11.5613742,15.0326426 11.1490057,14.6736384 10.5928,14.7594755 C10.2219962,14.8167002 9.78778496,15.0711826 9.2901662,15.5229228 L2.6740778,21.7421124 C2.55335542,21.8555926 2.36349668,21.8497217 2.25001643,21.7289993 C2.19771898,21.6733643 2.16860363,21.5998814 2.16860363,21.5235252 L2.16860363,2.61524616 C2.16860363,2.33910379 2.39246126,2.11524616 2.66860363,2.11524616 L18.5169964,2.11524616 C18.7931388,2.11524616 19.0169964,2.33910379 19.0169964,2.61524616 L19.0169964,21.3161401 C19.0171176,21.4818925 18.8827488,21.6162613 18.7169964,21.6162613 C18.6393135,21.6162613 18.5646568,21.5861402 18.5087242,21.5322313 C14.9041749,18.0581075 12.8509294,16.1111486 12.3489876,15.6913548 Z" id="Shape"></path>
            </g>
        </g>
    </g>
</svg>