<?xml version="1.0" encoding="UTF-8"?>
<svg width="17px" height="25px" viewBox="0 0 17 25" version="1.1" xmlns="http://www.w3.org/2000/svg" xmlns:xlink="http://www.w3.org/1999/xlink">
    <!-- Generator: Sketch 55.1 (78136) - https://sketchapp.com -->
    <title>bookmark</title>
    <desc>Created with Sketch.</desc>
    <g id="Page-1" stroke="none" stroke-width="1" fill="none" fill-rule="evenodd">
        <g id="Desktop-HD" transform="translate(-287.000000, -734.000000)" fill="#33302B" fill-rule="nonzero">
            <g id="bookmark" transform="translate(287.000000, 734.000000)">
                <path d="M14.7366623,0 L1.56773417,0 C0.703297159,0 0,0.70625 0,1.57431641 L0,24.0554199 C0,24.397998 0.184673853,24.7134766 0.482544318,24.8803711 C0.625207057,24.9603516 0.782943229,25 0.940630776,25 C1.1124679,25 1.28367291,24.9530762 1.43508797,24.8592773 L8.15404594,20.6936523 L14.87208,24.8290527 C15.1624138,25.0082031 15.5264615,25.0154297 15.8233595,24.8479492 C16.1203061,24.6810547 16.3043478,24.365918 16.3043478,24.0239746 L16.3043478,1.57431641 C16.3043478,0.70625 15.6010993,0 14.7366623,0 Z M14.2604549,22.0531485 L9.02843795,18.7716007 C8.72555922,18.5852238 8.26742262,18.1784499 7.70961364,18.5539091 L2.22012569,21.8306808 L2.22012569,2.19702458 L14.2604549,2.19702458 L14.2604549,22.0531485 Z" id="Shape"></path>
            </g>
        </g>
    </g>
</svg>