<?xml version="1.0" encoding="UTF-8"?>
<svg width="25px" height="25px" viewBox="0 0 25 25" version="1.1" xmlns="http://www.w3.org/2000/svg" xmlns:xlink="http://www.w3.org/1999/xlink">
    <!-- Generator: Sketch 55.1 (78136) - https://sketchapp.com -->
    <title>Group 2</title>
    <desc>Created with Sketch.</desc>
    <g id="Page-1" stroke="none" stroke-width="1" fill="none" fill-rule="evenodd">
        <g id="Desktop-HD" transform="translate(-228.000000, -733.000000)" fill="#33302B" fill-rule="nonzero">
            <g id="Group-2" transform="translate(228.000000, 733.000000)">
                <path d="M22.172738,18.367924 C23.3603347,16.4744056 24,14.2831484 24,12 C24,5.372583 18.627417,0 12,0 C5.372583,0 0,5.372583 0,12 C0,18.627417 5.372583,24 12,24 C14.1455935,24 16.2111187,23.4352378 18.0265708,22.3790083 L17.3191021,21.1045471 C17.0831411,20.6795376 16.575726,20.4857623 16.1165429,20.645329 C14.4095251,21.2385196 13.0373442,21.5162661 12,21.4785685 C6.49658365,21.2785714 2.61582283,17.3981824 2.61582283,12 C2.61582283,6.60181757 6.49658365,2.38993212 12,2.38993212 C17.5034163,2.38993212 21.6240825,6.4771525 21.6240825,12 C21.6240825,13.1366988 21.2486151,14.6051454 20.4976801,16.4053397 C20.303138,16.8717659 20.4871568,17.410036 20.9265359,17.6597279 L22.172738,18.367924 Z" id="Path"></path>
                <path d="M16.8939962,20.7264994 L16.2614433,22.8888905 L22.9070285,24.879204 C23.7006282,25.1168824 24.5366443,24.6662192 24.7743227,23.8726195 C24.8567195,23.5974996 24.8584039,23.3045085 24.7791757,23.0284595 L22.8847977,16.4280113 L20.5332915,17.2323797 L22.1141612,21.8875023 C22.1674393,22.044388 22.0834487,22.2147593 21.926563,22.2680374 C21.8658523,22.2886546 21.8001332,22.2892791 21.7390417,22.2698193 L16.8939962,20.7264994 Z" id="Path-3"></path>
            </g>
        </g>
    </g>
</svg>