<?xml version="1.0" encoding="UTF-8"?>
<svg width="15px" height="22px" viewBox="0 0 15 22" version="1.1" xmlns="http://www.w3.org/2000/svg" xmlns:xlink="http://www.w3.org/1999/xlink">
    <!-- Generator: Sketch 55.1 (78136) - https://sketchapp.com -->
    <title>Group 3</title>
    <desc>Created with Sketch.</desc>
    <g id="Page-2" stroke="none" stroke-width="1" fill="none" fill-rule="evenodd">
        <g id="Desktop-HD" transform="translate(-205.000000, -294.000000)" fill="#33302B">
            <g id="Group-4" transform="translate(187.000000, 281.000000)">
                <g id="Group-3" transform="translate(29.920028, 25.000000) rotate(-39.000000) translate(-29.920028, -25.000000) translate(20.920028, 16.000000)">
                    <path d="M4.53373285,4 L6.92141636,15.2331678 C7.15106927,16.3135998 6.46137655,17.3756334 5.38094454,17.6052863 C4.30051254,17.8349393 3.23847887,17.1452465 3.00882596,16.0648145 L0.152720354,2.6278941 C0.125460868,2.4996483 0.111154378,2.37166172 0.108916849,2.24529566 C0.0990857523,2.16490702 0.0940243785,2.08304458 0.0940243785,2 C0.0940243785,0.8954305 0.989454879,-5.68231282e-13 2.09402438,-5.68434189e-13 L15.8311336,-5.68434189e-13 C16.9357031,-5.68637095e-13 17.8311336,0.8954305 17.8311336,2 C17.8311336,3.1045695 16.9357031,4 15.8311336,4 L4.53373285,4 Z" id="Combined-Shape"></path>
                </g>
            </g>
        </g>
    </g>
</svg>