<?xml version="1.0" encoding="UTF-8"?>
<svg width="31px" height="25px" viewBox="0 0 31 25" version="1.1" xmlns="http://www.w3.org/2000/svg" xmlns:xlink="http://www.w3.org/1999/xlink">
    <!-- Generator: Sketch 55.1 (78136) - https://sketchapp.com -->
    <title>Shape</title>
    <desc>Created with Sketch.</desc>
    <g id="Page-1" stroke="none" stroke-width="1" fill="none" fill-rule="evenodd">
        <g id="Desktop-HD" transform="translate(-189.000000, -733.000000)" fill="#33302B" fill-rule="nonzero">
            <path d="M215.176905,745.118495 C217.796133,742.884698 217.796133,739.334878 215.688985,737.057525 C213.581838,734.780171 210.001479,734.780171 207.692674,737.382053 L205.160792,739.770152 C204.818937,740.085769 203.734505,740.082458 203.393289,739.770152 L200.561944,737.057525 C198.089537,734.73439 194.942794,734.703421 192.855408,737.057525 C190.768023,739.411628 191.233481,743.0773 194.228161,745.530077 L203.709253,754.462539 C204.091912,754.823055 204.688384,754.825704 205.07423,754.468601 L215.176905,745.118495 Z M191.455801,746.460827 C188.336559,743.53242 188.165913,738.612736 191.074654,735.472405 C193.983395,732.332073 198.870041,732.160274 201.989283,735.08868 L204.238372,737.228322 L206.476003,735.10908 C209.595246,732.180673 214.481892,732.352472 217.390632,735.492804 C220.299373,738.633135 220.128728,743.552819 217.009485,746.481226 L204.843177,757.809616 C204.451754,758.078421 203.959504,758.049419 203.56735,757.805239 L191.455801,746.460827 Z" id="Shape"></path>
        </g>
    </g>
</svg>