<?xml version="1.0" encoding="UTF-8"?>
<svg width="31px" height="25px" viewBox="0 0 31 25" version="1.1" xmlns="http://www.w3.org/2000/svg" xmlns:xlink="http://www.w3.org/1999/xlink">
    <!-- Generator: Sketch 55.1 (78136) - https://sketchapp.com -->
    <title>Group 3</title>
    <desc>Created with Sketch.</desc>
    <g id="Page-1" stroke="none" stroke-width="1" fill="none" fill-rule="evenodd">
        <g id="Desktop-HD" transform="translate(-197.000000, -728.000000)">
            <g id="Group-3" transform="translate(197.000000, 728.000000)">
                <path d="M15.4210097,5.33677003 C18.6038237,2.12038235 21.1231045,0.693082451 22.9788521,1.05487034 C24.8345997,1.41665823 26.5676849,2.72254952 28.1781077,4.97254422 C29.0219079,7.74094059 28.7404322,10.1371136 27.3336805,12.1610632 C25.9269288,14.1850128 22.1228102,17.724627 15.9213247,22.7799058 L13.9047604,23.1311758 L11.2661607,21.005201 L1.41033134,11.2500587 C0.273701619,5.49028957 1.49844488,2.2424875 5.08456111,1.50665245 C8.67067735,0.770817393 10.7312105,1.1328839 11.2661607,2.59285198 L15.4210097,5.33677003 Z" id="Path-6" fill="#B91739"></path>
                <path d="M26.1769049,12.1184951 C28.7961326,9.8846976 28.7961326,6.33487829 26.6889852,4.05752453 C24.5818378,1.78017077 21.001479,1.78017077 18.692674,4.38205272 L16.1607923,6.77015156 C15.818937,7.08576933 14.7345052,7.08245821 14.3932889,6.77015156 L11.561944,4.05752453 C9.08953694,1.73439006 5.94279351,1.70342118 3.85540844,4.05752453 C1.76802337,6.41162788 2.23348136,10.0773003 5.22816107,12.5300774 L14.7092532,21.4625392 C15.0919123,21.8230554 15.6883845,21.8257042 16.0742303,21.4686008 L26.1769049,12.1184951 Z M2.45580116,13.4608266 C-0.663441426,10.5324201 -0.834086865,5.61273602 2.0746539,2.47240457 C4.98339467,-0.667926883 9.87004069,-0.839726038 12.9892833,2.08868042 L15.2383723,4.22832244 L17.4760031,2.10907976 C20.5952456,-0.819326699 25.4818917,-0.647527544 28.3906324,2.49280391 C31.2993732,5.63313536 31.1287278,10.5528195 28.0094852,13.4812259 L15.8431774,24.8096157 C15.4517542,25.0784212 14.9595036,25.0494186 14.56735,24.8052385 L2.45580116,13.4608266 Z" id="Shape" fill="#33302B" fill-rule="nonzero"></path>
            </g>
        </g>
    </g>
</svg>