<?xml version="1.0" encoding="UTF-8"?>
<svg width="136px" height="50px" viewBox="0 0 136 50" version="1.1" xmlns="http://www.w3.org/2000/svg" xmlns:xlink="http://www.w3.org/1999/xlink">
    <!-- Generator: Sketch 55.1 (78136) - https://sketchapp.com -->
    <title>Group 7</title>
    <desc>Created with Sketch.</desc>
    <g id="Page-3" stroke="none" stroke-width="1" fill="none" fill-rule="evenodd">
        <g id="Artboard" transform="translate(-5.000000, -3.000000)">
            <g id="Group-7" transform="translate(5.000000, 3.000000)">
                <path d="M27.6449179,2 L107.872483,2 C115.682259,2 122.487403,7.32109875 124.37076,14.9003843 L132.595601,48 L2.96756163,48 L11.1413129,14.9218849 C13.016775,7.33213191 19.8268805,2 27.6449179,2 Z" id="Rectangle" fill="#F5D7D4"></path>
                <path d="M4.13077723,45.9889526 L12.7560379,14.9651896 C14.5664179,8.48289218 20.4728402,4 27.2031936,4 L108.262413,4 C114.992766,4 120.899189,8.48289218 122.709569,14.9651896 L131.436926,45.9889526 L135.509765,45.9889526 L126.562144,13.8892402 C124.268996,5.67833009 116.787527,2.13162821e-14 108.262413,2.13162821e-14 L27.2031936,2.13162821e-14 C18.6780794,2.13162821e-14 11.1966111,5.67833009 8.90346311,13.8892402 L0,45.9889526 L4.13077723,45.9889526 Z" id="Path" fill="#33302B" fill-rule="nonzero"></path>
                <rect id="Rectangle" fill="#33302B" x="0" y="45.6531709" width="135.509765" height="4.33578172"></rect>
            </g>
        </g>
    </g>
</svg>