<?xml version="1.0" encoding="UTF-8"?>
<svg width="90px" height="42px" viewBox="0 0 90 42" version="1.1" xmlns="http://www.w3.org/2000/svg" xmlns:xlink="http://www.w3.org/1999/xlink">
    <!-- Generator: Sketch 55.1 (78136) - https://sketchapp.com -->
    <title>active-tab-sp</title>
    <desc>Created with Sketch.</desc>
    <g id="Page-1" stroke="none" stroke-width="1" fill="none" fill-rule="evenodd">
        <g id="Artboard" transform="translate(-10.000000, -8.000000)" fill-rule="nonzero">
            <g id="active-tab-sp" transform="translate(10.000000, 8.000000)">
                <path d="M18.642177,1.67015543 L71.6058029,1.67015543 C76.8476455,1.67015543 81.3985268,6.10346815 82.5893413,12.3699418 L87.0431626,41.5764121 L3.20437894,41.5764121 L7.65549119,12.3865509 C8.84119099,6.11207091 13.395141,1.67015543 18.642177,1.67015543 Z" id="Rectangle" fill="#F5D7D4"></path>
                <path d="M3.77863312,37.8169385 L9.18088989,13.0462664 C10.3832697,7.6900387 14.0801419,3.45516649 18.5501652,3.45516649 L70.7728173,3.45516649 C75.2428403,3.45516649 79.1541704,6.91366696 80.5332723,13.0462664 L86.4847774,38 L90,38 L84.057359,11.4764764 C82.5343446,4.69192124 77.5654613,0 71.903432,0 L18.0672398,0 C12.4052104,0 7.43632755,4.69192124 5.91331318,11.4764764 L0,37.8169385 L3.77863312,37.8169385 Z" id="Path" fill="#33302B"></path>
                <path d="M86.4773694,38 C86.8491441,40.1781799 88.5845006,41.2165054 89.3856687,41.1728346 C90.0085024,41.1388846 88.3545409,41.193366 86.5587639,41.7594736 L86.4773694,38 Z" id="Path-6" fill="#F5D7D4"></path>
                <path d="M1.24372624,37.9062567 C1.61550103,40.0844366 2.7974065,41.18938 3.59857453,41.1457092 C4.2214086,41.1117592 3.09095579,41.5764121 1.24372624,41.5764121 L1.24372624,37.9062567 Z" id="Path-6" fill="#F5D7D4" transform="translate(2.507281, 39.741334) scale(-1, 1) translate(-2.507281, -39.741334) "></path>
            </g>
        </g>
    </g>
</svg>