<?xml version="1.0" encoding="UTF-8"?>
<svg width="136px" height="51px" viewBox="0 0 136 51" version="1.1" xmlns="http://www.w3.org/2000/svg" xmlns:xlink="http://www.w3.org/1999/xlink">
    <!-- Generator: Sketch 55.1 (78136) - https://sketchapp.com -->
    <title>Group 7</title>
    <desc>Created with Sketch.</desc>
    <g id="Page-3" stroke="none" stroke-width="1" fill="none" fill-rule="evenodd">
        <g id="Artboard" transform="translate(-5.000000, -3.000000)">
            <g id="Group-7" transform="translate(5.000000, 3.000000)">
                <path d="M27.8421973,2 L107.674418,2 C115.575462,2 122.435018,7.44356554 124.229936,15.1380284 L132.595601,51 L2.96756163,51 L11.2819352,15.1584223 C13.0691438,7.45412867 19.9333254,2 27.8421973,2 Z" id="Rectangle" fill="#F5D7D4"></path>
                <path d="M4.13077723,45.9889526 L12.7560379,14.9651896 C14.5664179,8.48289218 20.4728402,4 27.2031936,4 L108.262413,4 C114.992766,4 120.899189,8.48289218 122.709569,14.9651896 L131.436926,45.9889526 L135.509765,45.9889526 L126.562144,13.8892402 C124.268996,5.67833009 116.787527,2.13162821e-14 108.262413,2.13162821e-14 L27.2031936,2.13162821e-14 C18.6780794,2.13162821e-14 11.1966111,5.67833009 8.90346311,13.8892402 L0,45.9889526 L4.13077723,45.9889526 Z" id="Path" fill="#33302B" fill-rule="nonzero"></path>
                <path d="M131.436926,45.9889526 C132.116163,48.7176933 133.187654,50.0547091 134.651398,50 C135.789323,49.9574687 134.717833,50.290802 131.436926,51 L131.436926,45.9889526 Z" id="Path-6" fill="#F5D7D4"></path>
                <path d="M0.474149684,45.9889526 C1.15338682,48.7176933 2.22487734,50.0547091 3.68862127,50 C4.82654683,49.9574687 3.7550563,50.290802 0.474149684,51 L0.474149684,45.9889526 Z" id="Path-6" fill="#F5D7D4" transform="translate(2.301162, 48.494476) scale(-1, 1) translate(-2.301162, -48.494476) "></path>
            </g>
        </g>
    </g>
</svg>