<?xml version="1.0" encoding="UTF-8"?>
<svg width="26px" height="26px" viewBox="0 0 26 26" version="1.1" xmlns="http://www.w3.org/2000/svg" xmlns:xlink="http://www.w3.org/1999/xlink">
    <!-- Generator: Sketch 55.1 (78136) - https://sketchapp.com -->
    <title>compass</title>
    <desc>Created with Sketch.</desc>
    <g id="Page-1" stroke="none" stroke-width="1" fill="none" fill-rule="evenodd">
        <g id="Desktop-HD" transform="translate(-258.000000, -733.000000)" fill="#33302B" fill-rule="nonzero">
            <g id="compass" transform="translate(258.000000, 733.000000)">
                <path d="M24.5036855,0.0836223298 L0.673364699,9.83239047 C-0.328880408,10.2423973 -0.175692633,11.7069466 0.889716409,11.9006526 L12.0670926,13.9329153 L14.0993567,25.1102842 C14.2930628,26.1756925 15.7576131,26.3288802 16.1676201,25.3266357 L25.9163947,1.49633054 C26.2800443,0.607364743 25.3926519,-0.280077807 24.5036855,0.0836223298 Z M15.5111968,20.6696941 L14.1091165,13 C14.0284625,12.5562762 13.6882266,11.8236569 13.2445028,11.7430029 L5.21121521,10.5328115 C5.10199071,10.5163572 5.02678564,10.4144744 5.04324,10.3052498 C5.05390561,10.2344512 5.10160334,10.1747545 5.16830236,10.1487266 L22.5505423,3.3656723 C22.653442,3.32551783 22.7694103,3.37638293 22.8095648,3.47928267 C22.8281262,3.52684817 22.8277928,3.57971161 22.8086329,3.6270392 L15.893321,20.708779 C15.8518718,20.8111641 15.7352711,20.8605623 15.632886,20.8191131 C15.5694207,20.79342 15.5235094,20.7370468 15.5111968,20.6696941 Z" id="Shape"></path>
            </g>
        </g>
    </g>
</svg>