<?xml version="1.0" encoding="UTF-8"?>
<svg width="149px" height="54px" viewBox="0 0 149 54" version="1.1" xmlns="http://www.w3.org/2000/svg" xmlns:xlink="http://www.w3.org/1999/xlink">
    <!-- Generator: Sketch 55.1 (78136) - https://sketchapp.com -->
    <title>Group</title>
    <desc>Created with Sketch.</desc>
    <g id="Page-1" stroke="none" stroke-width="1" fill="none" fill-rule="evenodd">
        <g id="Desktop-HD" transform="translate(-230.000000, -251.000000)">
            <g id="Group" transform="translate(230.051124, 251.000000)">
                <path d="M1.0466426,54 L16.2157621,5.35246988 C17.0313777,2.75353249 19.3250887,1 21.9090175,1 L126.621541,1 C129.20547,1 131.499181,2.75353249 132.314796,5.35246988 L147.430838,54" id="Path" fill="#FFEBE5"></path>
                <path d="M2.09440494,50.6843506 L17.164638,5.42175305 C17.8443177,3.37856328 19.7557435,2 21.9090175,2 L126.621541,2 C128.774815,2 130.686241,3.37856328 131.365921,5.42175305 L146.429994,50.6843506 L148.530559,50.6843506 L133.263672,4.79045428 C132.312121,1.92998859 129.636125,-7.10542736e-15 126.621541,-7.10542736e-15 L21.9090175,-7.10542736e-15 C18.8944339,-7.10542736e-15 16.2184377,1.92998859 15.2668863,4.79045428 L1.42108547e-14,50.6843506 L2.09440494,50.6843506 Z" id="Path" fill="#676767" fill-rule="nonzero"></path>
            </g>
        </g>
    </g>
</svg>